<svg width="28" height="28" viewBox="0 0 28 28" fill="none" xmlns="http://www.w3.org/2000/svg">
<path fill-rule="evenodd" clip-rule="evenodd" d="M15.82 1.46436C16.1042 1.55374 16.3525 1.73146 16.5287 1.97166C16.705 2.21186 16.8 2.50203 16.8 2.79996V9.79996H22.4C22.6561 9.79985 22.9073 9.86998 23.1263 10.0027C23.3453 10.1355 23.5237 10.3257 23.6421 10.5528C23.7604 10.7799 23.8143 11.0351 23.7977 11.2906C23.7811 11.5462 23.6947 11.7923 23.548 12.0022L13.748 26.0022C13.5774 26.2465 13.3334 26.4301 13.0513 26.5261C12.7692 26.6222 12.4638 26.6257 12.1796 26.5362C11.8953 26.4467 11.6471 26.2689 11.4709 26.0286C11.2947 25.7882 11.1998 25.498 11.2 25.2V18.2H5.59999C5.34391 18.2001 5.0927 18.1299 4.8737 17.9972C4.6547 17.8645 4.47631 17.6742 4.35793 17.4471C4.23955 17.22 4.18573 16.9648 4.20231 16.7093C4.2189 16.4537 4.30526 16.2076 4.45199 15.9978L14.252 1.99776C14.4228 1.75386 14.6669 1.57078 14.9489 1.47511C15.2309 1.37944 15.536 1.37616 15.82 1.46576V1.46436Z" fill="black"/>
</svg>
