<svg width="28" height="28" viewBox="0 0 28 28" fill="none" xmlns="http://www.w3.org/2000/svg">
<path fill-rule="evenodd" clip-rule="evenodd" d="M5.59999 2.80005C4.85738 2.80005 4.14519 3.09505 3.62009 3.62015C3.09499 4.14525 2.79999 4.85744 2.79999 5.60005V21C2.79999 22.114 3.24249 23.1822 4.03014 23.9699C4.81779 24.7576 5.88608 25.2 6.99999 25.2C8.1139 25.2 9.18218 24.7576 9.96984 23.9699C10.7575 23.1822 11.2 22.114 11.2 21V5.60005C11.2 4.85744 10.905 4.14525 10.3799 3.62015C9.85478 3.09505 9.14259 2.80005 8.39999 2.80005H5.59999ZM6.99999 22.4C7.37129 22.4 7.72739 22.2525 7.98994 21.99C8.25249 21.7274 8.39999 21.3714 8.39999 21C8.39999 20.6287 8.25249 20.2726 7.98994 20.0101C7.72739 19.7475 7.37129 19.6 6.99999 19.6C6.62868 19.6 6.27259 19.7475 6.01004 20.0101C5.74749 20.2726 5.59999 20.6287 5.59999 21C5.59999 21.3714 5.74749 21.7274 6.01004 21.99C6.27259 22.2525 6.62868 22.4 6.99999 22.4ZM14 19.9402L20.86 13.0802C21.3849 12.5552 21.6798 11.8431 21.6798 11.1006C21.6798 10.3582 21.3849 9.64613 20.86 9.12105L18.879 7.14005C18.3539 6.61513 17.6418 6.32025 16.8994 6.32025C16.1569 6.32025 15.4449 6.61513 14.9198 7.14005L14 8.05985V19.9402ZM22.4 25.2H12.6994L21.0994 16.8H22.4C23.1426 16.8 23.8548 17.095 24.3799 17.6202C24.905 18.1453 25.2 18.8574 25.2 19.6V22.4C25.2 23.1427 24.905 23.8548 24.3799 24.3799C23.8548 24.905 23.1426 25.2 22.4 25.2Z" fill="#282938"/>
</svg>
