<svg width="24" height="24" viewBox="0 0 24 24" fill="none" xmlns="http://www.w3.org/2000/svg">
<g opacity="0.8">
<path d="M14.752 11.168L11.555 9.036C11.4043 8.93542 11.229 8.8777 11.048 8.869C10.867 8.8603 10.687 8.90094 10.5274 8.98659C10.3677 9.07224 10.2342 9.19967 10.1414 9.35527C10.0485 9.51087 9.99961 9.68878 10 9.86999V14.133C9.99998 14.314 10.0491 14.4917 10.1421 14.647C10.2352 14.8023 10.3686 14.9295 10.5282 15.0149C10.6879 15.1003 10.8677 15.1408 11.0485 15.132C11.2293 15.1232 11.4044 15.0655 11.555 14.965L14.752 12.833C14.889 12.7417 15.0013 12.618 15.0789 12.4728C15.1566 12.3277 15.1972 12.1656 15.1972 12.001C15.1972 11.8364 15.1566 11.6743 15.0789 11.5292C15.0013 11.384 14.889 11.2603 14.752 11.169V11.168Z" stroke="black" stroke-width="1.5" stroke-linecap="round" stroke-linejoin="round"/>
<path d="M21 12C21 13.1819 20.7672 14.3522 20.3149 15.4442C19.8626 16.5361 19.1997 17.5282 18.364 18.364C17.5282 19.1997 16.5361 19.8626 15.4442 20.3149C14.3522 20.7672 13.1819 21 12 21C10.8181 21 9.64778 20.7672 8.55585 20.3149C7.46392 19.8626 6.47177 19.1997 5.63604 18.364C4.80031 17.5282 4.13738 16.5361 3.68508 15.4442C3.23279 14.3522 3 13.1819 3 12C3 9.61305 3.94821 7.32387 5.63604 5.63604C7.32387 3.94821 9.61305 3 12 3C14.3869 3 16.6761 3.94821 18.364 5.63604C20.0518 7.32387 21 9.61305 21 12Z" stroke="black" stroke-width="1.5" stroke-linecap="round" stroke-linejoin="round"/>
</g>
</svg>
