<svg width="18" height="18" viewBox="0 0 18 18" fill="none" xmlns="http://www.w3.org/2000/svg">
<path d="M8.14413 2.63431C8.41413 1.80541 9.58683 1.80541 9.85593 2.63431L10.8189 5.59711C10.8778 5.77755 10.9921 5.93477 11.1457 6.0463C11.2992 6.15784 11.4841 6.21797 11.6739 6.21811H14.7897C15.6618 6.21811 16.0236 7.33411 15.3189 7.84711L12.7989 9.67771C12.6451 9.78934 12.5305 9.94682 12.4716 10.1276C12.4128 10.3083 12.4127 10.5031 12.4713 10.6839L13.4343 13.6467C13.7043 14.4756 12.7548 15.1659 12.0483 14.6529L9.52833 12.8223C9.37461 12.7107 9.18953 12.6506 8.99958 12.6506C8.80962 12.6506 8.62454 12.7107 8.47083 12.8223L5.95083 14.6529C5.24523 15.1659 4.29663 14.4756 4.56573 13.6467L5.52873 10.6839C5.58738 10.5031 5.58728 10.3083 5.52843 10.1276C5.46957 9.94682 5.355 9.78934 5.20113 9.67771L2.68203 7.84801C1.97733 7.33501 2.34003 6.21901 3.21123 6.21901H6.32613C6.51607 6.21906 6.70116 6.15901 6.8549 6.04747C7.00864 5.93592 7.12314 5.77859 7.18203 5.59801L8.14503 2.63521L8.14413 2.63431Z" fill="#FCD980"/>
</svg>
